<svg width="261" height="300" viewBox="0 0 261 300" fill="none" xmlns="http://www.w3.org/2000/svg">
<path d="M13.9568 114.544C2.01439 105.615 2.01441 91.137 13.9568 82.2074L108.686 11.3766C120.628 2.44698 139.99 2.44699 151.933 11.3766L246.662 82.2074C258.604 91.137 258.604 105.615 246.661 114.544L151.933 185.375C139.99 194.305 120.628 194.305 108.686 185.375L13.9568 114.544Z" stroke="white" stroke-width="9"/>
<path d="M14.0049 217.209C2.06248 208.279 2.0625 193.802 14.0049 184.872L108.734 114.041C120.676 105.111 140.038 105.112 151.981 114.041L246.71 184.872C258.652 193.802 258.652 208.279 246.71 217.209L151.981 288.04C140.038 296.969 120.676 296.969 108.734 288.04L14.0049 217.209Z" stroke="white" stroke-width="9"/>
</svg>
