<svg width="261" height="298" viewBox="0 0 261 298" fill="none" xmlns="http://www.w3.org/2000/svg">
<path fill-rule="evenodd" clip-rule="evenodd" d="M10.4496 78.6442C-3.48318 89.0621 -3.48321 105.953 10.4496 116.371L53.8976 148.858L10.4977 181.309C-3.4351 191.727 -3.43513 208.617 10.4977 219.035L105.226 289.866C119.159 300.284 141.749 300.284 155.682 289.866L250.41 219.035C264.343 208.617 264.343 191.727 250.41 181.309L206.962 148.822L250.362 116.371C264.295 105.953 264.295 89.0621 250.362 78.6442L155.633 7.81341C141.701 -2.60445 119.111 -2.60448 105.178 7.81339L10.4496 78.6442ZM199.754 143.432L243.154 110.981C253.106 103.54 253.106 91.475 243.154 84.0337L148.426 13.2029C138.474 5.76156 122.338 5.76155 112.386 13.2029L17.6575 84.0337C7.70548 91.475 7.70547 103.54 17.6575 110.981L61.1054 143.468L105.226 110.478C119.159 100.06 141.749 100.06 155.682 110.478L199.754 143.432ZM68.3133 148.858L112.434 115.867C122.386 108.426 138.522 108.426 148.474 115.867L192.547 148.822L148.426 181.812C138.474 189.253 122.338 189.253 112.386 181.812L68.3133 148.858ZM61.1054 154.247L105.178 187.201C119.111 197.619 141.701 197.619 155.633 187.201L199.754 154.211L243.202 186.698C253.154 194.14 253.154 206.204 243.202 213.646L148.474 284.477C138.522 291.918 122.386 291.918 112.434 284.476L17.7055 213.646C7.75355 206.204 7.75356 194.14 17.7056 186.698L61.1054 154.247Z" fill="url(#paint0_linear_5_123)"/>
<defs>
<linearGradient id="paint0_linear_5_123" x1="130.43" y1="3.3951e-06" x2="260.43" y2="297.34" gradientUnits="userSpaceOnUse">
<stop stop-color="#D27507"/>
<stop offset="1" stop-color="#64A0FB"/>
</linearGradient>
</defs>
</svg>
