<svg width="261" height="300" viewBox="0 0 261 300" fill="none" xmlns="http://www.w3.org/2000/svg">
<path d="M13.9568 114.602C2.01439 105.672 2.01441 91.1944 13.9568 82.2648L108.686 11.434C120.628 2.50441 139.99 2.50442 151.933 11.434L246.662 82.2648C258.604 91.1944 258.604 105.672 246.661 114.602L151.933 185.433C139.99 194.362 120.628 194.362 108.686 185.433L13.9568 114.602Z" stroke="black" stroke-width="9"/>
<path d="M14.0049 217.266C2.06248 208.337 2.0625 193.859 14.0049 184.929L108.734 114.099C120.676 105.169 140.038 105.169 151.981 114.099L246.71 184.929C258.652 193.859 258.652 208.337 246.71 217.266L151.981 288.097C140.038 297.027 120.676 297.027 108.734 288.097L14.0049 217.266Z" stroke="black" stroke-width="9"/>
</svg>
